<?xml version="1.0" standalone="no"?><!DOCTYPE svg PUBLIC "-//W3C//DTD SVG 1.1//EN" "http://www.w3.org/Graphics/SVG/1.1/DTD/svg11.dtd"><svg t="1721573376674" class="icon" viewBox="0 0 1024 1024" version="1.1" xmlns="http://www.w3.org/2000/svg" p-id="1457" width="200" height="200" xmlns:xlink="http://www.w3.org/1999/xlink"><path d="M841.984 576.554667a18.816 18.816 0 0 1-13.184-21.973334c41.941333-200.448-75.605333-402.346667-269.226667-456.021333-199.509333-55.125333-405.333333 67.285333-459.52 273.109333v0.981334a460.586667 460.586667 0 0 0 62.464 371.2 439.893333 439.893333 0 0 0 208.768 167.765333c236.544 89.301333 491.178667-44.373333 566.272-283.349333a23.04 23.04 0 0 0-15.573333-29.269334l-80-22.442666z m-393.130667 194.133333c-72.704-20.010667-133.162667-68.266667-170.752-135.125333a298.112 298.112 0 0 1-28.288-219.989334C282.026667 293.12 404.48 220.501333 523.52 253.141333c112.64 31.232 182.4 146.346667 161.92 262.912a21.205333 21.205333 0 0 0 15.104 24.405334l75.605333 20.949333a17.493333 17.493333 0 0 1 11.733334 22.954667c-47.36 142.933333-195.114667 225.834667-338.986667 186.325333z" fill="#1296db" p-id="1458"></path></svg>