<?xml version="1.0" standalone="no"?><!DOCTYPE svg PUBLIC "-//W3C//DTD SVG 1.1//EN" "http://www.w3.org/Graphics/SVG/1.1/DTD/svg11.dtd"><svg t="1721573617907" class="icon" viewBox="0 0 1024 1024" version="1.1" xmlns="http://www.w3.org/2000/svg" p-id="8138" xmlns:xlink="http://www.w3.org/1999/xlink" width="200" height="200"><path d="M998.17244445 513.82044445c0 96.36977778 0.45511111 192.73955555-0.11377778 289.10933333-0.45511111 76.11733333-34.36088889 133.91644445-99.66933334 172.71466667-29.12711111 17.29422222-61.21244445 25.03111111-95.00444444 25.14488888-194.78755555 0.11377778-389.57511111 0.56888889-584.47644444-0.11377778-108.99911111-0.34133333-194.44622222-86.24355555-194.78755556-195.47022222-0.56888889-194.56-0.45511111-389.00622222 0-583.56622222 0.22755555-109.68177778 86.69866667-194.90133333 197.29066666-195.12888889 135.168-0.34133333 270.336-0.11377778 405.504-0.11377777 57.11644445 0 114.34666667-0.11377778 171.46311112 0 105.35822222 0.11377778 186.70933333 72.47644445 198.99733333 177.152 0.91022222 8.07822222 0.68266667 16.27022222 0.68266667 24.34844444 0.11377778 95.34577778 0.11377778 190.57777778 0.11377778 285.92355556zM258.27555555 286.94755555v80.4408889h132.096c12.06044445 0 24.00711111 0.68266667 35.72622223 3.5271111 28.10311111 6.59911111 41.52888889 23.89333333 40.96 53.13422223-0.45511111 24.34844445-16.95288889 42.55288889-43.008 47.55911111-19.22844445 3.64088889-38.68444445 1.47911111-58.02666667 2.048-53.02044445 1.59288889-90.112 29.12711111-106.496 79.53066666-5.91644445 18.20444445-8.64711111 37.09155555-8.76088889 56.20622223-0.11377778 40.61866667-0.11377778 81.12355555 0 121.74222222 0 3.072-0.91022222 6.37155555 1.59288889 9.216h309.02044444v-80.32711111H347.24977778c1.13777778-22.528-1.59288889-44.032 2.38933333-65.30844444 3.41333333-18.65955555 14.336-30.03733333 32.42666667-35.04355556 7.85066667-2.16177778 15.81511111-3.41333333 24.00711111-3.41333334 19.456-0.11377778 38.912 0.68266667 58.14044444-0.68266666 42.78044445-3.072 76.11733333-21.16266667 94.208-62.35022222 17.52177778-39.70844445 20.82133333-80.44088889 8.41955556-121.74222222-13.65333333-45.62488889-43.80444445-73.84177778-91.59111111-81.57866667-11.49155555-1.82044445-23.09688889-2.84444445-34.70222223-2.95822223-58.25422222-0.45511111-116.39466667-0.45511111-174.64888888-0.56888888-2.27555555 0-4.66488889 0.34133333-7.62311112 0.56888888z m363.52 373.3048889v79.41688888c1.25155555 0.56888889 1.93422222 1.024 2.50311112 1.024 60.30222222-0.45511111 120.71822222 3.29955555 180.79288888-2.84444444 32.99555555-3.41333333 61.55377778-17.52177778 83.62666667-43.008 34.816-40.16355555 37.66044445-129.82044445-25.48622222-176.58311111-3.18577778-2.38933333-7.168-3.98222222-9.216-8.41955556 19.456-12.40177778 36.18133333-26.73777778 46.76266667-47.104 40.39111111-77.36888889-14.67733333-172.71466667-102.05866667-175.21777777-56.43377778-1.59288889-112.86755555-0.79644445-169.30133333-1.13777778-2.38933333 0-4.77866667 0.34133333-7.28177778 0.56888888V367.50222222c39.02577778 0 77.14133333-0.11377778 115.25688889 0 8.76088889 0 17.74933333 0 26.39644444 1.25155556 28.55822222 4.20977778 42.78044445 23.32444445 41.75644445 55.06844444-0.91022222 28.10311111-15.13244445 42.43911111-44.032 45.51111111-28.55822222 3.072-57.11644445 0.91022222-85.67466667 1.70666667-3.75466667 0.11377778-7.73688889-1.25155555-11.264 1.59288889v77.71022222c4.55111111 2.16177778 8.87466667 1.13777778 12.97066667 1.25155556 28.21688889 0.91022222 56.43377778-1.70666667 84.53688888 1.82044444 18.54577778 2.27555555 33.792 9.67111111 39.936 28.21688889 6.94044445 21.16266667 7.39555555 42.43911111-7.50933333 61.32622222-4.89244445 6.25777778-11.49155555 10.35377778-19.11466667 12.62933333-9.55733333 2.84444445-19.22844445 4.43733333-29.1271111 4.43733334-37.43288889 0.11377778-74.752 0.11377778-112.1848889 0.22755556h-12.288z m-418.816 80.09955555V286.94755555H106.95111111v453.40444445h96.02844444z" fill="#597DFB" p-id="8139"></path></svg>