<svg width="36" height="36" viewBox="0 0 36 36" fill="none" xmlns="http://www.w3.org/2000/svg">
<g clip-path="url(#clip0_3068_290)">
<path d="M32 0H4C1.79086 0 0 1.79086 0 4V32C0 34.2091 1.79086 36 4 36H32C34.2091 36 36 34.2091 36 32V4C36 1.79086 34.2091 0 32 0Z" fill="#224888"/>
<path fill-rule="evenodd" clip-rule="evenodd" d="M25.875 6.33325C25.8473 6.33325 25.8212 6.33776 25.7959 6.34453C25.7774 6.35129 25.759 6.35881 25.7398 6.36558C25.1945 6.56856 24.4042 6.78808 23.5287 6.78808C23.5287 6.78808 16.6381 6.78808 15.1481 6.78808C14.6121 6.78808 14.1405 7.04368 13.8602 7.43235C13.8579 7.43686 9.8335 15.2877 9.8335 15.2877C9.8335 15.2877 11.9179 15.5252 11.9747 15.5335C13.831 15.8132 16.0336 16.3439 17.562 17.2476C19.7585 18.5466 21.1309 20.4343 20.9919 22.4611C20.7224 26.3892 16.9553 28.1566 13.993 28.5813C11.9133 28.864 10.5324 28.5813 10.5324 28.5813C10.5324 28.5813 12.2297 29.5865 14.6758 29.6601C18.8523 29.7864 22.1002 28.0423 23.8182 25.5209C26.5309 21.5425 25.0148 15.2102 17.9038 13.3248C16.5398 12.9632 14.6458 12.6211 14.6458 12.6211L15.6589 10.6695C15.8839 10.1177 16.4491 9.72677 17.1119 9.72677C17.1427 9.72677 17.1734 9.72828 17.2041 9.72978H20.5849H20.588C20.588 9.72978 20.5903 9.72978 20.5926 9.72978H23.5963C24.1846 9.72978 24.6961 9.4208 24.961 8.96522L24.9894 8.9111L26.1077 6.77379C26.1292 6.74748 26.1445 6.71741 26.1545 6.68433C26.1622 6.66028 26.1668 6.63547 26.1668 6.60915C26.1668 6.4573 26.0362 6.33325 25.875 6.33325Z" fill="white"/>
</g>
<defs>
<clipPath id="clip0_3068_290">
<rect width="36" height="36" fill="white"/>
</clipPath>
</defs>
</svg>
