<?xml version="1.0" encoding="utf-8"?><!-- Uploaded to: SVG Repo, www.svgrepo.com, Generator: SVG Repo Mixer Tools -->
<svg width="800px" height="800px" viewBox="0 0 192 192" xmlns="http://www.w3.org/2000/svg" xml:space="preserve" id="Mirror" x="0" y="0" style="enable-background:new 0 0 192 192" version="1.1"><style>.st0{fill:none;stroke:#000000;stroke-width:12;stroke-linecap:round;stroke-miterlimit:10}</style><path d="M69.7 111c3.8 0 6.9-3.1 6.9-6.9V89.6c0-3.8-3.1-6.9-6.9-6.9-3.8 0-6.9 3.1-6.9 6.9v14.6c0 3.8 3.1 6.8 6.9 6.8z"/><path d="M96 133.4c-3-.1-7-.2-11.5-1.5-3.4-1-6.2-2.3-8.4-3.5M23.3 57.5 82.5 37" class="st0"/><path d="M170 58.7v82.5c0 1.2-.1 5.3-3.2 8.9-4 4.8-9.8 4.9-10.6 4.9H35.8c-.9 0-6.6-.1-10.6-4.9-3.1-3.6-3.2-7.8-3.2-8.9V58.7c0-.5.4-1 1-1h146c.6 0 1 .4 1 1z" style="fill:none;stroke:#000000;stroke-width:12;stroke-miterlimit:10"/><path d="M122.3 111c-3.8 0-6.9-3.1-6.9-6.9V89.6c0-3.8 3.1-6.9 6.9-6.9 3.8 0 6.9 3.1 6.9 6.9v14.6c0 3.8-3.1 6.8-6.9 6.8z"/><path d="M96 133.4c3-.1 7-.2 11.5-1.5 3.4-1 6.2-2.3 8.4-3.5m52.8-70.9L109.5 37" class="st0"/></svg>