<?xml version="1.0" encoding="iso-8859-1"?>
<!-- Generator: Adobe Illustrator 19.0.0, SVG Export Plug-In . SVG Version: 6.00 Build 0)  -->
<svg version="1.1" id="Capa_1" xmlns="http://www.w3.org/2000/svg" xmlns:xlink="http://www.w3.org/1999/xlink" x="0px" y="0px"
	 viewBox="0 0 512 512" style="enable-background:new 0 0 512 512;" xml:space="preserve">
<path style="fill:#4DAAF5;" d="M256,0L256,0c141.383,0,256,114.617,256,256l0,0c0,141.383-114.617,256-256,256l0,0
	C114.617,512,0,397.383,0,256l0,0C0,114.617,114.617,0,256,0z"/>
<path style="fill:#F5DBCD;" d="M404.25,238.345c6.947,0.009,13.621-2.745,18.538-7.662l0.309-0.309
	c10.222-10.222,10.222-26.792,0-37.014l-0.309-0.309c-4.917-4.917-11.591-7.671-18.538-7.662h-59.78
	c-9.754,0-17.655-7.901-17.655-17.655V70.621c0-19.5-15.81-35.31-35.31-35.31s-35.31,15.81-35.31,35.31v72.139
	c0,4.679-1.863,9.172-5.173,12.482l-65.448,65.448v176.552h220.495c14.627,0,26.483-11.855,26.483-26.483
	c0-14.627-11.855-26.483-26.483-26.483l0,0c7.027,0,13.762-2.79,18.723-7.759l0,0c10.337-10.346,10.337-27.109-0.009-37.455
	c-4.961-4.961-11.697-7.751-18.714-7.751l0,0c7.027,0,13.762-2.79,18.723-7.759l0,0c10.337-10.346,10.337-27.109-0.009-37.455
	c-4.961-4.961-11.697-7.751-18.714-7.751H404.25z"/>
<path style="fill:#3F51B4;" d="M114.953,185.379h52.966c9.754,0,17.655,7.901,17.655,17.655v194.207
	c0,9.754-7.901,17.655-17.655,17.655h-52.966c-9.754,0-17.655-7.901-17.655-17.655V203.034
	C97.298,193.28,105.198,185.379,114.953,185.379z"/>
<path style="fill:#F2D2C0;" d="M424.792,336.516c10.337-10.346,10.337-27.109-0.009-37.455c-4.961-4.961-11.697-7.751-18.714-7.751
	l0,0c7.027,0,13.762-2.79,18.723-7.759l0,0c10.337-10.346,10.337-27.109-0.009-37.455c-4.961-4.961-11.697-7.751-18.714-7.751
	h-1.827c6.947,0.009,13.621-2.745,18.538-7.662l0.309-0.309c10.222-10.222,10.222-26.792,0-37.014l-0.309-0.309
	c-4.917-4.917-11.591-7.671-18.538-7.662h-0.759c-26.324,83.421-76.809,157.149-145.073,211.853h147.659
	c14.627,0,26.483-11.855,26.483-26.483c0-14.627-11.855-26.483-26.483-26.483l0,0C413.096,344.276,419.831,341.486,424.792,336.516z
	"/>
<g>
</g>
<g>
</g>
<g>
</g>
<g>
</g>
<g>
</g>
<g>
</g>
<g>
</g>
<g>
</g>
<g>
</g>
<g>
</g>
<g>
</g>
<g>
</g>
<g>
</g>
<g>
</g>
<g>
</g>
</svg>
